PathFileType	4	(X/Y/Z)	C:/Users/opensim2020/Desktop/walking_exp_matlab/subject03_walking13_straight_03.trc	
DataRate	CameraRate	NumFrames	NumMarkers	Units	OrigDataRate	OrigDataStartFrame	OrigNumFrames	
100.00	100.00	7	46	mm	100.00	1679	209	
Frame#	Time	LFHD			RFHD			LBHD			RBHD			C7			T10			CLAV			STRN			RBAK			LSHO			LUPA			LELB			LFRM			LWRA			LWRB			LFIN			RSHO			RUPA			RELB			RFRM			RWRA			RWRB			RFIN			LASI			RASI			LPSI			RPSI			LTHI			LKNE			LTIB			LANK			LHEE			LTOE			RTHI			RKNE			RTIB			RANK			RHEE			RTOE			*39			*40			*41			*42			*43			*44			*45			
		X1	Y1	Z1	X2	Y2	Z2	X3	Y3	Z3	X4	Y4	Z4	X5	Y5	Z5	X6	Y6	Z6	X7	Y7	Z7	X8	Y8	Z8	X9	Y9	Z9	X10	Y10	Z10	X11	Y11	Z11	X12	Y12	Z12	X13	Y13	Z13	X14	Y14	Z14	X15	Y15	Z15	X16	Y16	Z16	X17	Y17	Z17	X18	Y18	Z18	X19	Y19	Z19	X20	Y20	Z20	X21	Y21	Z21	X22	Y22	Z22	X23	Y23	Z23	X24	Y24	Z24	X25	Y25	Z25	X26	Y26	Z26	X27	Y27	Z27	X28	Y28	Z28	X29	Y29	Z29	X30	Y30	Z30	X31	Y31	Z31	X32	Y32	Z32	X33	Y33	Z33	X34	Y34	Z34	X35	Y35	Z35	X36	Y36	Z36	X37	Y37	Z37	X38	Y38	Z38	X39	Y39	Z39	X40	Y40	Z40	X41	Y41	Z41	X42	Y42	Z42	X43	Y43	Z43	X44	Y44	Z44	X45	Y45	Z45	X46	Y46	Z46	

53	0.520	-1033.78467	-628.20660	1597.82288	-901.60034	-643.71094	1592.77563	-1047.06311	-748.07288	1537.91064	-916.48004	-758.98438	1533.01953	-992.19312	-771.96082	1387.87451	-992.26831	-828.27527	1080.92810	-995.98798	-650.54834	1307.27612	-1001.31476	-619.01062	1138.47485	-891.68298	-830.10345	1219.36401	-1150.99585	-703.20020	1350.35254	-1231.29761	-766.43756	1165.60376	-1253.99146	-793.93475	1046.92651	-1267.00696	-801.38977	916.90405	-1249.66943	-809.22375	794.93707	-1294.28955	-838.12170	811.05585	-1295.28845	-839.78754	727.02887	-835.15833	-690.47900	1330.61987	-751.97797	-651.15594	1120.11035	-736.29852	-605.11157	1018.25098	-741.16461	-536.20276	900.80835	-784.54431	-473.74454	828.42273	-739.03998	-494.97955	809.50745	-752.38257	-443.17896	759.57007	-1100.59534	-668.21436	910.64648	-867.11877	-685.10516	904.78119	-1067.41553	-834.60132	931.49261	-917.20288	-841.03046	942.25507	-1166.98401	-642.97180	622.47351	-1123.39380	-557.91425	470.92981	-1133.08276	-542.62512	275.15933	-1100.94653	-495.71988	68.72507	-1064.89832	-527.49268	25.86699	-1073.74414	-344.40329	65.89115	-832.09424	-795.52759	619.92206	-869.75201	-830.88464	443.97458	-864.97607	-940.25018	282.06271	-911.52240	-1049.12329	91.83360	-958.69714	-1104.39771	73.84468	-937.83221	-920.97632	29.66198	-990.15320	-723.47583	1643.23682																		 
54	0.530	-1035.01160	-615.52661	1597.56189	-902.84454	-631.11908	1592.59668	-1048.29004	-735.44141	1537.60767	-917.73572	-746.37939	1532.88892	-993.58368	-759.22577	1387.39502	-993.11493	-814.88983	1080.35767	-996.82172	-637.73688	1307.03857	-1001.84290	-605.75421	1138.34033	-893.17657	-817.46942	1218.82263	-1152.24377	-689.88483	1349.70691	-1231.51563	-752.26288	1164.16003	-1253.96033	-779.39880	1045.35217	-1266.86462	-788.57739	915.34265	-1249.33997	-797.57251	794.02625	-1294.20044	-826.82697	810.04333	-1294.66101	-830.59326	725.90479	-836.07745	-678.31952	1330.50952	-753.02124	-639.71539	1119.82739	-737.30365	-593.96002	1017.77917	-742.36737	-524.58923	900.68524	-785.54651	-461.34012	829.15485	-740.49762	-483.01572	809.60016	-753.22797	-430.28979	760.72003	-1101.00098	-653.76044	911.14642	-867.66248	-672.15448	903.97388	-1068.61194	-820.60883	931.52539	-918.45575	-827.73578	941.39484	-1166.49646	-626.30774	623.81952	-1122.98779	-544.49969	470.89410	-1132.07507	-532.67841	273.93716	-1099.35315	-489.15686	67.12834	-1064.47449	-522.68170	26.43708	-1071.75476	-338.46368	61.41122	-832.67267	-784.13141	619.73090	-869.49146	-820.15625	443.67896	-864.79803	-933.01801	283.96240	-910.54352	-1046.60938	96.49049	-957.73358	-1102.10010	80.13625	-937.19812	-920.46698	29.61640	-990.61108	-711.78992	1641.70984																		 
55	0.540	-1036.27649	-602.79266	1597.67578	-904.03833	-618.47833	1592.84534	-1049.54651	-722.67645	1537.68982	-918.99731	-733.73663	1533.07227	-995.06354	-746.39117	1387.18970	-993.93427	-801.32843	1080.03687	-997.69470	-624.71649	1307.19373	-1002.32684	-592.14465	1138.62146	-894.74878	-804.63458	1218.59448	-1153.43762	-676.30859	1349.31519	-1232.13257	-737.33881	1162.90173	-1253.75195	-764.18549	1043.86194	-1266.46460	-774.98944	913.98907	-1248.91516	-786.20471	792.76282	-1294.08850	-814.71844	809.24182	-1293.93799	-820.74243	725.00507	-837.00195	-666.16858	1331.04980	-754.20929	-628.28333	1119.87451	-738.41888	-583.15747	1017.57751	-743.47058	-513.55566	900.64069	-786.64655	-449.70670	829.61658	-741.92096	-471.68332	809.63983	-754.18121	-418.50180	761.74756	-1101.51929	-639.17810	911.94403	-868.30957	-658.63800	903.39941	-1069.83374	-806.40826	931.93787	-919.64758	-814.02594	940.91565	-1165.96558	-609.56512	625.02679	-1122.94348	-531.23767	470.87552	-1130.70959	-524.09973	272.85513	-1097.80469	-485.77032	66.01445	-1063.04041	-522.05597	27.05048	-1069.35950	-335.71066	51.98098	-833.39685	-771.86932	619.60034	-869.30975	-808.46759	443.49030	-864.63489	-925.03992	286.16071	-910.19293	-1042.89551	101.58887	-957.11334	-1098.90369	87.21872	-937.36591	-919.84607	29.37110	-992.07001	-698.97876	1641.83105																		 
56	0.550	-1037.35583	-589.88452	1598.18591	-905.18231	-605.82141	1593.46851	-1050.82886	-709.76208	1538.15039	-920.29547	-720.97900	1533.61169	-996.70306	-733.63031	1387.56006	-994.83118	-787.42578	1080.14197	-998.60413	-611.53595	1307.76965	-1002.85938	-578.45477	1139.32544	-896.53607	-791.60168	1218.77588	-1154.71936	-662.50708	1349.28650	-1232.85522	-721.85809	1162.03540	-1253.52002	-748.32367	1042.61511	-1265.97852	-760.58685	912.83820	-1248.33765	-774.44672	791.57422	-1293.87512	-801.70862	808.54919	-1293.02014	-810.20941	724.35596	-838.09088	-653.89410	1331.77856	-755.48486	-616.96240	1120.23633	-739.75714	-572.56604	1017.67133	-744.74432	-503.07452	900.72205	-787.54071	-438.81631	830.13556	-743.36743	-461.16965	809.72626	-755.17731	-407.42078	762.68451	-1102.34778	-624.49091	913.01923	-869.02136	-644.82300	903.12616	-1071.19128	-791.86713	932.85541	-920.79504	-799.93475	940.88837	-1165.35864	-592.82489	626.39423	-1123.04895	-517.98651	471.27966	-1129.36987	-516.45929	272.56281	-1096.70410	-485.01984	65.41456	-1062.02954	-522.88898	27.16460	-1066.04797	-336.57895	42.14629	-834.26361	-758.79761	619.56555	-869.22302	-795.60504	443.34222	-864.54266	-916.06854	288.68121	-909.33447	-1038.89172	107.72868	-956.22955	-1095.03735	95.44381	-937.16541	-919.16223	29.23718	-993.29901	-686.20001	1642.25378																		 
57	0.560	-1038.57983	-576.98438	1599.26721	-906.44403	-593.00421	1594.55127	-1052.09998	-696.77637	1539.11426	-921.56506	-708.15265	1534.61133	-998.48138	-720.58881	1388.31042	-995.70813	-773.44708	1080.71179	-999.48810	-598.30725	1308.82031	-1003.26740	-564.54907	1140.51672	-898.36890	-778.42688	1219.22363	-1155.97021	-648.40076	1349.56555	-1232.85486	-706.10126	1160.96899	-1253.18787	-731.86292	1041.60498	-1265.27014	-745.49176	911.91498	-1247.29932	-761.18652	790.88983	-1293.58545	-787.70245	808.16290	-1291.91809	-798.81451	723.96405	-839.30182	-641.47302	1332.98413	-756.92450	-605.68854	1120.98242	-741.15295	-562.21497	1018.07635	-746.04364	-493.10242	900.95313	-788.44537	-428.56665	830.60461	-744.75684	-451.44547	809.81171	-756.18915	-397.33438	763.33911	-1103.15991	-610.10339	914.31659	-869.92096	-630.59741	903.24866	-1072.56726	-777.08850	934.32513	-921.86188	-785.41248	941.38867	-1164.74109	-576.60626	628.05835	-1123.04724	-504.46692	472.24155	-1128.67871	-508.51022	273.48074	-1096.38171	-483.64124	65.31070	-1062.37756	-522.64276	27.46997	-1062.87842	-335.88083	37.54141	-835.27985	-744.68848	619.60242	-869.20337	-781.20978	443.14981	-864.47821	-905.78516	291.49594	-908.80524	-1033.53357	113.90262	-955.63684	-1090.04541	104.70289	-937.04077	-918.36749	29.14123	-994.53955	-673.39722	1643.20776																		 
58	0.570	-1039.64539	-563.95087	1600.72229	-907.60645	-580.12274	1596.12256	-1053.38477	-683.67194	1540.50854	-922.87927	-695.26111	1536.01160	-1000.28192	-707.27209	1389.38513	-996.70007	-759.38080	1081.67859	-1000.40344	-584.90814	1310.27100	-1003.94562	-550.53748	1142.11084	-900.23456	-765.07928	1220.05261	-1157.42847	-634.04333	1350.36157	-1233.45667	-689.62848	1160.64111	-1252.75842	-714.96930	1040.92505	-1264.55969	-729.55493	911.40015	-1246.19287	-747.30017	790.51965	-1293.19800	-772.59857	808.02350	-1290.65002	-786.48712	723.89026	-840.34119	-628.97382	1334.64954	-758.40271	-594.44971	1122.06140	-742.67560	-552.11816	1018.81500	-747.29938	-483.68979	901.27234	-789.30841	-418.96347	831.02435	-746.17389	-442.63733	809.88483	-757.19745	-387.87552	763.74310	-1104.16943	-595.40155	915.91583	-871.47540	-615.65802	903.90991	-1073.83911	-762.17847	936.32111	-922.81110	-770.61731	942.38403	-1164.45386	-561.39673	630.13647	-1122.81006	-491.14529	473.53387	-1128.68481	-500.76422	274.36682	-1096.48096	-480.78976	65.63104	-1062.47070	-521.05609	29.02785	-1062.84802	-332.68665	36.88232	-836.36670	-729.56110	619.64319	-869.10077	-765.08472	442.84213	-864.42944	-894.31976	294.73123	-908.30017	-1027.60449	121.63858	-955.68402	-1083.37146	114.88187	-936.98114	-917.48413	29.08476	-995.89764	-660.43884	1644.61804																		 
59	0.580	-1040.77234	-550.91852	1602.58215	-908.58887	-567.36627	1597.86011	-1054.69800	-670.52924	1542.25061	-924.21509	-682.29321	1537.70679	-1002.01776	-693.84009	1390.85803	-997.85065	-745.37915	1083.02942	-1001.38519	-571.44482	1312.12744	-1004.68567	-536.37939	1144.05737	-902.01794	-751.68207	1221.27576	-1158.57739	-619.53180	1351.36121	-1233.74023	-673.01086	1160.53076	-1252.47119	-697.55127	1040.80090	-1263.63599	-712.79510	911.20453	-1244.82397	-732.38544	790.51154	-1292.65369	-756.32318	808.12091	-1289.17810	-773.18494	724.13904	-841.51825	-616.29376	1336.65369	-759.99426	-583.30634	1123.43945	-744.34479	-542.14008	1019.79498	-748.74139	-474.63776	901.75452	-790.19702	-409.80875	831.50311	-747.55896	-434.78235	809.95770	-758.07599	-379.55081	763.99780	-1105.26758	-580.66370	917.93213	-872.90613	-600.85571	904.88593	-1074.94470	-747.22949	938.77185	-923.70062	-755.66840	943.77368	-1164.68127	-546.93475	632.52411	-1122.11365	-478.63565	474.74701	-1129.48059	-492.41962	275.33081	-1096.61218	-477.78833	65.83543	-1063.31274	-518.74579	30.03902	-1065.23364	-329.51498	35.61560	-837.38379	-713.45618	619.64178	-868.85730	-747.06335	442.35226	-864.46729	-881.15698	298.20996	-907.94147	-1020.03735	129.94864	-956.27240	-1074.76050	126.16587	-937.06226	-916.32062	29.07627	-997.15619	-647.41248	1646.32751																		 
